<svg xmlns="http://www.w3.org/2000/svg" xmlns:xlink="http://www.w3.org/1999/xlink" width="61" zoomAndPan="magnify" viewBox="0 0 45.75 60" height="80" preserveAspectRatio="xMidYMid meet" version="1.0"><defs><clipPath id="id1"><path d="M 13 0.164062 L 45.5 0.164062 L 45.5 43 L 13 43 Z M 13 0.164062 " clip-rule="nonzero"/></clipPath><clipPath id="id2"><path d="M 0.00390625 42.039062 L 14.035156 42.039062 L 14.035156 59.410156 L 0.00390625 59.410156 Z M 0.00390625 42.039062 " clip-rule="nonzero"/></clipPath></defs><g clip-path="url(#id1)"><path fill="#f5f5f5" d="M 13.792969 0.164062 L 13.792969 42.054688 L 45.746094 42.054688 L 45.746094 0.164062 L 13.792969 0.164062 " fill-opacity="1" fill-rule="nonzero"/></g><path fill="#afe4da" d="M 17.082031 4.101562 L 17.082031 37.363281 L 42.457031 37.363281 L 42.457031 4.101562 L 17.082031 4.101562 " fill-opacity="1" fill-rule="nonzero"/><path fill="#fbfbc3" d="M 38.953125 20.667969 L 20.054688 20.667969 L 20.054688 13.648438 L 38.953125 13.648438 L 38.953125 20.667969 " fill-opacity="1" fill-rule="nonzero"/><path fill="#fbfbc3" d="M 38.953125 33.320312 L 20.054688 33.320312 L 20.054688 26.304688 L 38.953125 26.304688 L 38.953125 33.320312 " fill-opacity="1" fill-rule="nonzero"/><path fill="#eedebe" d="M 29.621094 30.03125 C 29.621094 31.449219 28.464844 32.59375 27.042969 32.59375 L 23.902344 32.59375 C 22.480469 32.59375 21.328125 31.449219 21.328125 30.03125 C 21.328125 28.617188 22.480469 27.46875 23.902344 27.46875 L 27.042969 27.46875 C 28.464844 27.46875 29.621094 28.617188 29.621094 30.03125 " fill-opacity="1" fill-rule="nonzero"/><path fill="#eedebe" d="M 29.621094 17.15625 C 29.621094 18.574219 28.464844 19.71875 27.042969 19.71875 L 23.902344 19.71875 C 22.480469 19.71875 21.328125 18.574219 21.328125 17.15625 C 21.328125 15.742188 22.480469 14.59375 23.902344 14.59375 L 27.042969 14.59375 C 28.464844 14.59375 29.621094 15.742188 29.621094 17.15625 " fill-opacity="1" fill-rule="nonzero"/><path fill="#f5f5f5" d="M 39.476562 8.527344 C 39.476562 9.621094 38.589844 10.503906 37.488281 10.503906 L 22.625 10.503906 C 21.527344 10.503906 20.636719 9.621094 20.636719 8.527344 C 20.636719 7.433594 21.527344 6.550781 22.625 6.550781 L 37.488281 6.550781 C 38.589844 6.550781 39.476562 7.433594 39.476562 8.527344 " fill-opacity="1" fill-rule="nonzero"/><path fill="#f14485" d="M 37.472656 15.691406 C 38.570312 13.949219 37.632812 12.152344 35.648438 16.0625 C 34.835938 17.667969 34.632812 18.296875 34.632812 18.296875 C 34.679688 18.386719 33.191406 16.582031 33.191406 16.582031 C 31.78125 15.039062 30.585938 15.652344 31.527344 16.582031 C 32.667969 17.714844 34.820312 19.902344 34.820312 19.902344 C 34.820312 19.902344 36.121094 17.839844 37.472656 15.691406 " fill-opacity="1" fill-rule="nonzero"/><path fill="#f14485" d="M 37.476562 28.222656 C 38.570312 26.480469 37.632812 24.683594 35.648438 28.597656 C 34.835938 30.203125 34.632812 30.828125 34.632812 30.828125 C 34.679688 30.917969 33.195312 29.117188 33.195312 29.117188 C 31.78125 27.570312 30.585938 28.183594 31.527344 29.117188 C 32.667969 30.246094 34.820312 32.433594 34.820312 32.433594 C 34.820312 32.433594 36.125 30.375 37.476562 28.222656 " fill-opacity="1" fill-rule="nonzero"/><path fill="#fbc589" d="M 23.390625 24.207031 C 23.390625 24.207031 21.75 23.140625 18.664062 27.800781 C 17.320312 29.828125 15.160156 32.027344 13.792969 32.828125 L 13.792969 17.484375 L 8.816406 24.90625 C 8.816406 24.90625 8.609375 39.488281 7.0625 41.265625 C 6.6875 42.386719 6.226562 43.414062 4.027344 45.535156 C 4.027344 45.535156 9.53125 50.0625 10.988281 48.417969 C 10.988281 48.417969 11.664062 46.347656 13.792969 43.859375 C 14.253906 43.320312 14.828125 42.71875 15.433594 42.054688 C 17.085938 40.230469 18.972656 37.875 19.445312 34.671875 C 19.445312 34.671875 19.445312 33.089844 21.632812 30.214844 C 25.605469 24.988281 23.390625 24.207031 23.390625 24.207031 " fill-opacity="1" fill-rule="nonzero"/><path fill="#fdf1ed" d="M 20.378906 26.21875 C 20.378906 26.21875 21.894531 24.457031 22.820312 24.851562 C 24.007812 25.355469 22.808594 27.5625 22.515625 27.8125 C 22.515625 27.8125 21.003906 27.8125 20.378906 26.21875 " fill-opacity="1" fill-rule="nonzero"/><g clip-path="url(#id2)"><path fill="#f4f24b" d="M 4.027344 42.054688 L 14.015625 48.214844 L 10.144531 59.410156 L 0.00390625 59.410156 L 0.00390625 48.777344 L 4.027344 42.054688 " fill-opacity="1" fill-rule="nonzero"/></g></svg>